<svg width="51" height="59" viewBox="0 0 51 59" fill="none" xmlns="http://www.w3.org/2000/svg">
<path d="M40.7956 16.1727C38.7132 15.023 36.811 13.962 34.9013 12.9195C32.1539 11.4186 29.3841 9.95646 26.6553 8.42228C25.8045 7.94539 25.1209 7.83264 24.205 8.35759C22.1784 9.51654 20.0495 10.4943 17.9987 11.6145C17.2129 12.0433 16.5739 12.0803 15.7955 11.5997C14.0939 10.5517 12.3422 9.58309 10.3861 8.45001C10.9749 8.05445 11.3576 7.7624 11.7737 7.52396C15.9051 5.1469 20.0569 2.80312 24.1679 0.389096C25.0503 -0.128459 25.732 -0.12846 26.6107 0.381701C34.3329 4.8604 42.0792 9.29843 49.8144 13.7568C51.5792 14.7734 51.321 17.8898 49.3909 18.9989C42.8669 22.7475 36.3317 26.4775 29.8318 30.2705C29.3284 30.5644 28.7711 31.2908 28.7637 31.8231C28.6875 37.1872 28.7191 42.5513 28.7247 47.9154C28.7247 48.0892 28.7878 48.2629 28.8436 48.5365C29.1129 48.4496 29.3377 48.4182 29.5216 48.3128C34.0654 45.7047 38.5887 43.0615 43.1567 40.4959C44.0316 40.0042 44.2787 39.4275 44.2582 38.4922C44.2044 36.0209 44.2155 33.5477 44.2638 31.0764C44.2731 30.6309 44.4552 29.9821 44.7784 29.7807C46.7122 28.5773 48.7129 27.4794 50.851 26.2539C50.8844 26.7918 50.9272 27.1411 50.9272 27.4905C50.9309 32.4812 50.903 37.4737 50.9476 42.4644C50.955 43.372 50.6801 43.8655 49.8776 44.3221C41.9938 48.8137 34.1434 53.3645 26.2522 57.8432C25.8082 58.0964 25.0391 58.0059 24.5004 57.8321C22.5777 57.2129 21.9554 55.9486 22.0037 53.8433C22.1709 46.7565 22.0335 39.6641 22.0966 32.5736C22.1078 31.2742 21.6489 30.5514 20.5492 29.9341C16.3472 27.5755 12.1898 25.1411 8.01015 22.7438C7.62004 22.5201 7.1965 22.3574 6.58719 22.0746C6.52775 22.6939 6.44973 23.1301 6.44973 23.5663C6.4423 28.6051 6.46831 33.642 6.43115 38.6807C6.42372 39.5939 6.72095 40.1096 7.53645 40.5495C9.76004 41.7473 11.9391 43.0264 14.1069 44.3239C14.4506 44.5291 14.8537 44.9857 14.8667 45.3387C14.9373 47.5161 14.902 49.6973 14.902 52.0817C14.3354 51.8285 13.9527 51.6954 13.6054 51.4976C9.46654 49.1206 5.35187 46.7028 1.18704 44.3738C0.261937 43.8563 -0.00184791 43.2297 9.72602e-06 42.2445C0.0204438 33.2889 0.00372478 24.3315 0.00558242 15.376C0.00558242 13.8215 2.75489 12.2947 4.12397 13.0784C10.8245 16.9139 17.5101 20.7697 24.2385 24.5571C24.779 24.862 25.7469 24.9785 26.2466 24.7012C30.7848 22.1874 35.2654 19.5682 39.7572 16.9712C40.0563 16.79 40.3182 16.5386 40.7956 16.1727Z" fill="url(#paint0_linear_10_256)"/>
<defs>
<linearGradient id="paint0_linear_10_256" x1="-3.75038" y1="28.8965" x2="47.2869" y2="29.0759" gradientUnits="userSpaceOnUse">
<stop stop-color="#EB683F"/>
<stop offset="0.47" stop-color="#E1315A"/>
<stop offset="1" stop-color="#722584"/>
</linearGradient>
</defs>
</svg>
